<svg width="37" height="37" viewBox="0 0 37 37" fill="none" xmlns="http://www.w3.org/2000/svg">
<path d="M17.725 23.5676L17.697 23.5412C19.2912 23.7018 20.8733 23.1381 22.0067 22.0055C23.1401 20.873 23.705 19.2914 23.5456 17.697L23.5735 17.7235C23.4153 15.8487 24.0915 13.9994 25.422 12.669C26.7524 11.3386 28.6016 10.6623 30.4765 10.8206L30.4485 10.7941C32.7187 11.0073 34.8788 9.7739 35.849 7.71044C36.8192 5.64698 36.3912 3.19669 34.7789 1.58436C33.1665 -0.0279647 30.7162 -0.455996 28.6528 0.514223C26.5893 1.48444 25.3559 3.64451 25.5691 5.9147L25.5426 5.88675C25.7014 7.76172 25.0253 9.61129 23.6948 10.9418C22.3642 12.2724 20.5147 12.9485 18.6397 12.7897L18.6662 12.8176C17.072 12.657 15.4899 13.2207 14.3565 14.3533C13.2231 15.4858 12.6582 17.0674 12.8176 18.6618L12.7912 18.6353C12.9489 20.51 12.2725 22.3589 10.9422 23.6892C9.61187 25.0195 7.76292 25.696 5.88823 25.5382L5.9147 25.5647C3.64451 25.3515 1.48444 26.5849 0.514223 28.6484C-0.455996 30.7118 -0.0279647 33.1621 1.58436 34.7744C3.19669 36.3868 5.64698 36.8148 7.71044 35.8446C9.7739 34.8744 11.0073 32.7143 10.7941 30.4441L10.822 30.4706C10.6638 28.5957 11.3401 26.7465 12.6705 25.4161C14.0009 24.0856 15.8502 23.4094 17.725 23.5676Z" fill="#FF7143"/>
</svg>
